<svg version="1" xmlns="http://www.w3.org/2000/svg" width="933.333" height="933.333" viewBox="0 0 700.000000 700.000000"><path d="M265.9 76.3c-2.4 1.3-5.7 4.3-7.4 6.6-2.9 4.1-3 4.8-3.3 15.9-.3 10.8-.1 12.1 2.1 16.2 3.4 6.4 10 10.3 18.2 10.8l6.3.4-.4 3.2c-.2 1.7-.6 32.7-1 68.8l-.6 65.7-18.4 24.6c-18.7 25-19.8 27-17.2 31.8 1.2 2.3 14.8 18.7 20.7 24.9 3.7 4.1 8.2 5 11.3 2.5 1.3-1 37.1-48.7 44.5-59.2 1.2-1.7 3.1-5.9 4.2-9.3 2-6 2.2-9.3 3.1-65.5.5-32.6 1-66.5 1-75.5V122h42.8l.6 20.2c.3 11.2.9 45.7 1.4 76.8l.8 56.5 2.4 5.8c3.2 7.4 27.5 40.6 30.7 41.8 4.3 1.6 7.9-1.1 19.8-15.4 9.5-11.4 11.5-14.3 11.5-17 0-2.5-1.9-5.9-8.4-14.8l-8.4-11.5-.9-62.4c-.4-34.4-.8-65.4-.8-69v-6.5l7.2-.6c6.1-.4 7.9-1 11-3.5 5.8-4.7 7.4-7.5 8.6-15.3 2.2-14.8-1.9-25.7-11.6-30.6l-5.1-2.5H270.3l-4.4 2.3z"/><path d="M509.4 212.7l-14.2.4-15.1 18.5c-8.3 10.2-15.1 19.4-15.1 20.6 0 1.9.6 1.9 19.5 1.6 10.7-.2 19.4 0 19.3.4-.2.4-33.9 40-75 88.1l-74.7 87.5-9.4.4c-8.2.3-10.2.7-15.5 3.4l-6.1 3.2-32.8-22.9c-22.2-15.4-33-23.6-33.5-25.1-.4-1.3-1.2-4.3-1.9-6.7-4.7-16.1-19.8-27.3-36.9-27.3-21.9 0-38.2 16.5-38.2 38.6l-.1 7.9-37.1 50.6c-44 59.9-42.7 58.1-47.7 68.1-6 11.9-9 22.8-9.6 34.5-.6 12.1.9 18.9 6.6 30.2 10.2 20 25.7 33.8 45.6 40.5l7 2.3 203 .3c224.6.3 210.1.7 225-6.2 21.8-10.1 40.3-33.9 43.5-56.2 2-13.7-1.7-30.3-10.3-46.9-3.4-6.4-84.6-122.3-95.9-136.8-2.3-2.9-3.6-3.7-6.1-3.7-4.2.1-5.5 1.2-17.5 15.5-10.8 12.9-12.4 15.7-11.1 19.2.4 1.2 19.9 29.1 43.2 62 23.3 33 44.1 63 46 66.8 2 3.9 4.1 9.3 4.8 12 1 4.5.9 5.5-.9 9-3.8 7.4-8.2 12.4-13.4 15.5l-5.3 3H350.7c-194.2 0-198.9 0-202.6-1.9-5.2-2.7-11.7-9.6-14.7-15.7-2.4-5-2.5-5.4-1.1-10.5.8-3 2.7-8 4.3-11.2 1.6-3.1 20-29.1 40.9-57.7l38-51.9 4.5-.1c2.5 0 5.9-.4 7.7-.9 3.1-.9 4.8.2 43.5 27 24.2 16.7 41.2 29.2 42.6 31.1 16.7 23.6 49.5 24.3 64.6 1.4 4.1-6.4 5.6-10.5 6.5-18.1l.7-6 76.9-90.7c43.7-51.5 77.3-90.1 77.6-89.5.4.7 1.9 8.2 3.4 16.7s3.3 16.1 4 16.8c1.6 1.7 1.6 1.7 19.2-20.1l13.6-16.8-6.2-34.7c-3.4-19-6.5-35-6.7-35.4-.5-.7-25-.8-58-.1z"/></svg>